<svg width="67" height="112" viewBox="0 0 67 112" fill="none" xmlns="http://www.w3.org/2000/svg">
<path d="M1.51909 56.0911C8.81693 37.8487 23.3317 1.53859 23.6404 0.550008C24.0532 -0.771748 40.293 1.10217 39.8175 2.81268C39.5621 3.73104 38.8269 9.61387 38.2007 14.8657C37.6127 19.7972 40.7637 24.3931 45.5668 25.656L58.888 29.1589C64.7896 30.7107 67.9501 37.1111 65.5575 42.7246C56.4521 64.0879 36.7876 110.259 36.7751 110.58C36.7588 110.998 28.8751 111.542 23.9074 111.205L31.1473 86.5577C32.7078 81.245 29.6542 75.6756 24.3358 74.1345L8.02342 69.4077C2.34442 67.7621 -0.677027 61.5808 1.51909 56.0911Z" fill="#0D98BA" fill-opacity="0.25"/>
</svg>
