<svg width="72" height="58" viewBox="0 0 72 58" fill="none" xmlns="http://www.w3.org/2000/svg">
<ellipse cx="32.5984" cy="22.007" rx="32.5984" ry="22.007" fill="#0A758F"/>
<path d="M26.9175 54.0099C26.5237 54.621 25.6301 54.621 25.2363 54.0099L11.2609 32.3213C10.8321 31.6559 11.3099 30.7797 12.1015 30.7797L40.0523 30.7797C40.844 30.7797 41.3217 31.6559 40.8929 32.3213L26.9175 54.0099Z" fill="#0A758F"/>
<ellipse rx="19.5591" ry="11.1103" transform="matrix(-1 0 0 1 52.4409 41.1845)" fill="#5DD6F4"/>
<path d="M55.5634 56.9633C55.9637 57.4859 56.751 57.4859 57.1513 56.9633L64.6116 47.2215C65.1154 46.5636 64.6463 45.6135 63.8177 45.6135H48.8971C48.0684 45.6135 47.5993 46.5636 48.1031 47.2215L55.5634 56.9633Z" fill="#5DD6F4"/>
</svg>
