<svg width="81" height="89" viewBox="0 0 81 89" fill="none" xmlns="http://www.w3.org/2000/svg">
<path fill-rule="evenodd" clip-rule="evenodd" d="M39.6871 0.989344C45.7187 5.23492 42.6795 17.8497 48.2738 22.7999C51.8783 25.9895 57.1718 20.2125 61.7443 20.5073C68.1736 20.9217 77.9692 18.1944 80.5039 24.8775C83.1399 31.8279 74.5904 38.2755 70.8666 44.5599C68.5218 48.517 63.1675 50.4564 62.5559 55.1669C61.8153 60.8711 69.6858 66.2851 67.3782 71.4282C65.327 75.9997 57.8593 71.224 54.0786 74.0605C50.1266 77.0255 50.3911 84.7363 46.2242 87.2992C42.3829 89.6618 36.8768 89.5971 33.2177 86.891C29.1141 83.8563 28.859 77.0991 26.1692 72.4678C24.4568 69.5194 21.915 67.3825 20.1832 64.4486C18.5056 61.6066 18.3238 57.708 16.0942 55.3995C11.3762 50.5143 1.66479 50.6993 0.128349 43.6833C-1.09459 38.0989 6.72018 34.9407 10.8898 31.6338C14.2752 28.9489 19.8988 30.0508 22.2059 26.1738C25.4767 20.6774 22.0134 12.0738 25.6311 6.86191C28.739 2.38449 35.4114 -2.02033 39.6871 0.989344Z" fill="#FFBF00"/>
</svg>
